%TF.GenerationSoftware,KiCad,Pcbnew,8.0.4*%
%TF.CreationDate,2024-08-25T11:04:54+02:00*%
%TF.ProjectId,Relais-M,52656c61-6973-42d4-9d2e-6b696361645f,rev?*%
%TF.SameCoordinates,Original*%
%TF.FileFunction,Copper,L1,Top*%
%TF.FilePolarity,Positive*%
%FSLAX46Y46*%
G04 Gerber Fmt 4.6, Leading zero omitted, Abs format (unit mm)*
G04 Created by KiCad (PCBNEW 8.0.4) date 2024-08-25 11:04:54*
%MOMM*%
%LPD*%
G01*
G04 APERTURE LIST*
%TA.AperFunction,ComponentPad*%
%ADD10C,1.600000*%
%TD*%
%TA.AperFunction,ComponentPad*%
%ADD11O,1.600000X1.600000*%
%TD*%
%TA.AperFunction,ComponentPad*%
%ADD12O,9.000000X3.500000*%
%TD*%
%TA.AperFunction,ComponentPad*%
%ADD13R,1.200000X1.200000*%
%TD*%
%TA.AperFunction,ComponentPad*%
%ADD14C,1.200000*%
%TD*%
%TA.AperFunction,ComponentPad*%
%ADD15R,1.050000X1.500000*%
%TD*%
%TA.AperFunction,ComponentPad*%
%ADD16O,1.050000X1.500000*%
%TD*%
%TA.AperFunction,ComponentPad*%
%ADD17R,1.600000X1.600000*%
%TD*%
%TA.AperFunction,ComponentPad*%
%ADD18O,3.500000X2.000000*%
%TD*%
%TA.AperFunction,ComponentPad*%
%ADD19O,2.000000X4.000000*%
%TD*%
%TA.AperFunction,ComponentPad*%
%ADD20O,2.000000X3.000000*%
%TD*%
%TA.AperFunction,ComponentPad*%
%ADD21R,3.000000X2.000000*%
%TD*%
%TA.AperFunction,ComponentPad*%
%ADD22O,3.000000X2.000000*%
%TD*%
%TA.AperFunction,ViaPad*%
%ADD23C,0.600000*%
%TD*%
%TA.AperFunction,Conductor*%
%ADD24C,0.200000*%
%TD*%
G04 APERTURE END LIST*
D10*
%TO.P,R3,1*%
%TO.N,Net-(Q1-B)*%
X162000000Y-69580000D03*
D11*
%TO.P,R3,2*%
%TO.N,Net-(C3-Pad2)*%
X162000000Y-59420000D03*
%TD*%
D10*
%TO.P,R2,1*%
%TO.N,Net-(U1-PB2)*%
X171500000Y-69580000D03*
D11*
%TO.P,R2,2*%
%TO.N,Net-(Q1-E)*%
X171500000Y-59420000D03*
%TD*%
D10*
%TO.P,R1,1*%
%TO.N,Net-(U1-AREF{slash}PB0)*%
X166500000Y-69580000D03*
D11*
%TO.P,R1,2*%
%TO.N,Net-(Q1-E)*%
X166500000Y-59420000D03*
%TD*%
D12*
%TO.P,J2,1,Pin_1*%
%TO.N,Net-(J2-Pin_1)*%
X151000000Y-77500000D03*
%TD*%
D13*
%TO.P,C3,1*%
%TO.N,Net-(U1-PB2)*%
X136000000Y-60500000D03*
D14*
%TO.P,C3,2*%
%TO.N,Net-(C3-Pad2)*%
X138000000Y-60500000D03*
%TD*%
D12*
%TO.P,J4,1,Pin_1*%
%TO.N,Net-(J4-Pin_1)*%
X132500000Y-77500000D03*
%TD*%
D15*
%TO.P,Q1,1,C*%
%TO.N,Net-(Q1-C)*%
X135730000Y-45360000D03*
D16*
%TO.P,Q1,2,B*%
%TO.N,Net-(Q1-B)*%
X137000000Y-45360000D03*
%TO.P,Q1,3,E*%
%TO.N,Net-(Q1-E)*%
X138270000Y-45360000D03*
%TD*%
D12*
%TO.P,J3,1,Pin_1*%
%TO.N,Net-(J3-Pin_1)*%
X169500000Y-77500000D03*
%TD*%
D13*
%TO.P,C2,1*%
%TO.N,Net-(Q1-E)*%
X136027400Y-53000000D03*
D14*
%TO.P,C2,2*%
%TO.N,Net-(U1-GND)*%
X138027400Y-53000000D03*
%TD*%
D17*
%TO.P,J1,1*%
%TO.N,Net-(U1-AREF{slash}PB0)*%
X126350000Y-57150000D03*
D10*
%TO.P,J1,2*%
%TO.N,unconnected-(J1-Pad2)*%
X126350000Y-54550000D03*
%TO.P,J1,3*%
%TO.N,Net-(U1-GND)*%
X126350000Y-59250000D03*
%TO.P,J1,4*%
%TO.N,Net-(Q1-E)*%
X126350000Y-52450000D03*
%TO.P,J1,5*%
%TO.N,Net-(U1-PB2)*%
X129150000Y-59250000D03*
%TO.P,J1,6*%
%TO.N,unconnected-(J1-Pad6)*%
X129150000Y-52450000D03*
D18*
%TO.P,J1,7*%
%TO.N,N/C*%
X123500000Y-49000000D03*
D19*
X122700000Y-55850000D03*
D18*
X123500000Y-62700000D03*
%TD*%
D17*
%TO.P,U1,1,~{RESET}/PB5*%
%TO.N,unconnected-(U1-~{RESET}{slash}PB5-Pad1)*%
X147380000Y-68620000D03*
D11*
%TO.P,U1,2,XTAL1/PB3*%
%TO.N,unconnected-(U1-XTAL1{slash}PB3-Pad2)*%
X149920000Y-68620000D03*
%TO.P,U1,3,XTAL2/PB4*%
%TO.N,unconnected-(U1-XTAL2{slash}PB4-Pad3)*%
X152460000Y-68620000D03*
%TO.P,U1,4,GND*%
%TO.N,Net-(U1-GND)*%
X155000000Y-68620000D03*
%TO.P,U1,5,AREF/PB0*%
%TO.N,Net-(U1-AREF{slash}PB0)*%
X155000000Y-61000000D03*
%TO.P,U1,6,PB1*%
%TO.N,unconnected-(U1-PB1-Pad6)*%
X152460000Y-61000000D03*
%TO.P,U1,7,PB2*%
%TO.N,Net-(U1-PB2)*%
X149920000Y-61000000D03*
%TO.P,U1,8,VCC*%
%TO.N,Net-(Q1-E)*%
X147380000Y-61000000D03*
%TD*%
D20*
%TO.P,K1,11*%
%TO.N,Net-(J2-Pin_1)*%
X167650000Y-44750000D03*
X167650000Y-52250000D03*
%TO.P,K1,12*%
%TO.N,Net-(J4-Pin_1)*%
X162610000Y-44750000D03*
X162610000Y-52250000D03*
%TO.P,K1,14*%
%TO.N,Net-(J3-Pin_1)*%
X172690000Y-44750000D03*
X172690000Y-52250000D03*
D21*
%TO.P,K1,A1*%
%TO.N,Net-(Q1-C)*%
X147350000Y-52250000D03*
D22*
%TO.P,K1,A2*%
%TO.N,Net-(U1-GND)*%
X147350000Y-44750000D03*
%TD*%
D17*
%TO.P,C1,1*%
%TO.N,Net-(Q1-E)*%
X140771100Y-65000000D03*
D10*
%TO.P,C1,2*%
%TO.N,Net-(U1-GND)*%
X143271100Y-65000000D03*
%TD*%
D23*
%TO.N,Net-(Q1-B)*%
X140468500Y-62878500D03*
%TD*%
D24*
%TO.N,Net-(U1-PB2)*%
X148812200Y-62107800D02*
X149920000Y-61000000D01*
X146630000Y-62107800D02*
X148812200Y-62107800D01*
X136989800Y-61401700D02*
X145923900Y-61401700D01*
X136901700Y-61313600D02*
X136989800Y-61401700D01*
X136901700Y-60500000D02*
X136901700Y-61313600D01*
X136000000Y-60500000D02*
X136901700Y-60500000D01*
X145923900Y-61401700D02*
X146630000Y-62107800D01*
%TO.N,Net-(U1-AREF{slash}PB0)*%
X153898300Y-61000000D02*
X155000000Y-61000000D01*
X152567100Y-62559500D02*
X153898300Y-61228300D01*
X145911800Y-62157800D02*
X146313500Y-62559500D01*
X130157800Y-62157800D02*
X145911800Y-62157800D01*
X146313500Y-62559500D02*
X152567100Y-62559500D01*
X153898300Y-61228300D02*
X153898300Y-61000000D01*
X127750100Y-58550100D02*
X127750100Y-59750100D01*
X127750100Y-59750100D02*
X130157800Y-62157800D01*
X126350000Y-57150000D02*
X127750100Y-58550100D01*
%TO.N,Net-(U1-GND)*%
X125000000Y-57900000D02*
X126350000Y-59250000D01*
X135267900Y-55759500D02*
X125540500Y-55759500D01*
X125540500Y-55759500D02*
X125000000Y-56300000D01*
X138027400Y-53000000D02*
X135267900Y-55759500D01*
X125000000Y-56300000D02*
X125000000Y-57900000D01*
%TO.N,Net-(Q1-B)*%
X155708200Y-63288200D02*
X162000000Y-69580000D01*
X140878200Y-63288200D02*
X155708200Y-63288200D01*
X140468500Y-62878500D02*
X140878200Y-63288200D01*
%TO.N,Net-(Q1-C)*%
X141568300Y-52250000D02*
X135730000Y-46411700D01*
X147350000Y-52250000D02*
X141568300Y-52250000D01*
X135730000Y-45360000D02*
X135730000Y-46411700D01*
%TO.N,Net-(U1-AREF{slash}PB0)*%
X155000000Y-61000000D02*
X156101700Y-61000000D01*
X164681700Y-69580000D02*
X166500000Y-69580000D01*
X156101700Y-61000000D02*
X164681700Y-69580000D01*
%TO.N,Net-(U1-PB2)*%
X136000000Y-60500000D02*
X135956800Y-60500000D01*
X134706800Y-59250000D02*
X129150000Y-59250000D01*
X135956800Y-60500000D02*
X134706800Y-59250000D01*
X170319800Y-68399800D02*
X171500000Y-69580000D01*
X164069600Y-68399800D02*
X170319800Y-68399800D01*
X155568100Y-59898300D02*
X164069600Y-68399800D01*
X151985600Y-59898300D02*
X155568100Y-59898300D01*
X151021700Y-60862200D02*
X151985600Y-59898300D01*
X151021700Y-61000000D02*
X151021700Y-60862200D01*
X149920000Y-61000000D02*
X151021700Y-61000000D01*
%TO.N,Net-(C3-Pad2)*%
X162000000Y-59420000D02*
X160898300Y-59420000D01*
X139462600Y-59037400D02*
X138000000Y-60500000D01*
X160515700Y-59037400D02*
X139462600Y-59037400D01*
X160898300Y-59420000D02*
X160515700Y-59037400D01*
%TO.N,Net-(U1-GND)*%
X155000000Y-68620000D02*
X153898300Y-68620000D01*
X153898300Y-68391700D02*
X153898300Y-68620000D01*
X150506600Y-65000000D02*
X153898300Y-68391700D01*
X143271100Y-65000000D02*
X150506600Y-65000000D01*
%TO.N,Net-(Q1-E)*%
X166500000Y-59420000D02*
X171500000Y-59420000D01*
X166500000Y-59420000D02*
X165398300Y-59420000D01*
X147380000Y-61000000D02*
X148481700Y-61000000D01*
X127493200Y-53593200D02*
X126350000Y-52450000D01*
X134532500Y-53593200D02*
X127493200Y-53593200D01*
X135125700Y-53000000D02*
X134532500Y-53593200D01*
X136027400Y-53000000D02*
X135125700Y-53000000D01*
X148481700Y-60862300D02*
X148481700Y-61000000D01*
X149885700Y-59458300D02*
X148481700Y-60862300D01*
X155745400Y-59458300D02*
X149885700Y-59458300D01*
X156862100Y-60575000D02*
X155745400Y-59458300D01*
X164243300Y-60575000D02*
X156862100Y-60575000D01*
X165398300Y-59420000D02*
X164243300Y-60575000D01*
%TD*%
M02*
