M48
; DRILL file {KiCad 8.0.4} date 2024-08-25T11:05:10+0200
; FORMAT={-:-/ absolute / inch / decimal}
; #@! TF.CreationDate,2024-08-25T11:05:10+02:00
; #@! TF.GenerationSoftware,Kicad,Pcbnew,8.0.4
; #@! TF.FileFunction,Plated,1,2,PTH
FMAT,2
INCH
; #@! TA.AperFunction,Plated,PTH,ViaDrill
T1C0.0118
; #@! TA.AperFunction,Plated,PTH,ComponentDrill
T2C0.0236
; #@! TA.AperFunction,Plated,PTH,ComponentDrill
T3C0.0295
; #@! TA.AperFunction,Plated,PTH,ComponentDrill
T4C0.0315
; #@! TA.AperFunction,Plated,PTH,ComponentDrill
T5C0.0394
; #@! TA.AperFunction,Plated,PTH,ComponentDrill
T6C0.0472
; #@! TA.AperFunction,Plated,PTH,ComponentDrill
T7C0.0512
%
G90
G05
T1
X5.5303Y-2.4755
T2
X5.3543Y-2.3819
X5.3554Y-2.0866
X5.4331Y-2.3819
X5.4341Y-2.0866
T3
X5.3437Y-1.7858
X5.3937Y-1.7858
X5.4437Y-1.7858
T4
X4.9744Y-2.065
X4.9744Y-2.1476
X4.9744Y-2.25
X4.9744Y-2.3327
X5.0846Y-2.065
X5.0846Y-2.3327
X5.5422Y-2.5591
X5.6406Y-2.5591
X5.8024Y-2.4016
X5.8024Y-2.7016
X5.9024Y-2.4016
X5.9024Y-2.7016
X6.0024Y-2.4016
X6.0024Y-2.7016
X6.1024Y-2.4016
X6.1024Y-2.7016
X6.378Y-2.3394
X6.378Y-2.7394
X6.5551Y-2.3394
X6.5551Y-2.7394
X6.752Y-2.3394
X6.752Y-2.7394
T7
X5.8012Y-1.7618
X5.8012Y-2.0571
X6.402Y-1.7618
X6.402Y-2.0571
X6.6004Y-1.7618
X6.6004Y-2.0571
X6.7988Y-1.7618
X6.7988Y-2.0571
T5
G00X4.8307Y-2.1594
M15
G01X4.8307Y-2.2382
M16
G05
G00X4.8917Y-1.9291
M15
G01X4.8327Y-1.9291
M16
G05
G00X4.8917Y-2.4685
M15
G01X4.8327Y-2.4685
M16
G05
T6
G00X5.1378Y-3.0512
M15
G01X5.2953Y-3.0512
M16
G05
G00X5.8661Y-3.0512
M15
G01X6.0236Y-3.0512
M16
G05
G00X6.5945Y-3.0512
M15
G01X6.752Y-3.0512
M16
G05
M30
