%TF.GenerationSoftware,KiCad,Pcbnew,8.0.4*%
%TF.CreationDate,2024-08-25T11:04:55+02:00*%
%TF.ProjectId,Relais-M,52656c61-6973-42d4-9d2e-6b696361645f,rev?*%
%TF.SameCoordinates,Original*%
%TF.FileFunction,Legend,Top*%
%TF.FilePolarity,Positive*%
%FSLAX46Y46*%
G04 Gerber Fmt 4.6, Leading zero omitted, Abs format (unit mm)*
G04 Created by KiCad (PCBNEW 8.0.4) date 2024-08-25 11:04:55*
%MOMM*%
%LPD*%
G01*
G04 APERTURE LIST*
%ADD10C,0.150000*%
%ADD11C,0.100000*%
%ADD12C,0.120000*%
G04 APERTURE END LIST*
D10*
X160084819Y-64666666D02*
X159608628Y-64999999D01*
X160084819Y-65238094D02*
X159084819Y-65238094D01*
X159084819Y-65238094D02*
X159084819Y-64857142D01*
X159084819Y-64857142D02*
X159132438Y-64761904D01*
X159132438Y-64761904D02*
X159180057Y-64714285D01*
X159180057Y-64714285D02*
X159275295Y-64666666D01*
X159275295Y-64666666D02*
X159418152Y-64666666D01*
X159418152Y-64666666D02*
X159513390Y-64714285D01*
X159513390Y-64714285D02*
X159561009Y-64761904D01*
X159561009Y-64761904D02*
X159608628Y-64857142D01*
X159608628Y-64857142D02*
X159608628Y-65238094D01*
X159084819Y-64333332D02*
X159084819Y-63714285D01*
X159084819Y-63714285D02*
X159465771Y-64047618D01*
X159465771Y-64047618D02*
X159465771Y-63904761D01*
X159465771Y-63904761D02*
X159513390Y-63809523D01*
X159513390Y-63809523D02*
X159561009Y-63761904D01*
X159561009Y-63761904D02*
X159656247Y-63714285D01*
X159656247Y-63714285D02*
X159894342Y-63714285D01*
X159894342Y-63714285D02*
X159989580Y-63761904D01*
X159989580Y-63761904D02*
X160037200Y-63809523D01*
X160037200Y-63809523D02*
X160084819Y-63904761D01*
X160084819Y-63904761D02*
X160084819Y-64190475D01*
X160084819Y-64190475D02*
X160037200Y-64285713D01*
X160037200Y-64285713D02*
X159989580Y-64333332D01*
X169584819Y-64666666D02*
X169108628Y-64999999D01*
X169584819Y-65238094D02*
X168584819Y-65238094D01*
X168584819Y-65238094D02*
X168584819Y-64857142D01*
X168584819Y-64857142D02*
X168632438Y-64761904D01*
X168632438Y-64761904D02*
X168680057Y-64714285D01*
X168680057Y-64714285D02*
X168775295Y-64666666D01*
X168775295Y-64666666D02*
X168918152Y-64666666D01*
X168918152Y-64666666D02*
X169013390Y-64714285D01*
X169013390Y-64714285D02*
X169061009Y-64761904D01*
X169061009Y-64761904D02*
X169108628Y-64857142D01*
X169108628Y-64857142D02*
X169108628Y-65238094D01*
X168680057Y-64285713D02*
X168632438Y-64238094D01*
X168632438Y-64238094D02*
X168584819Y-64142856D01*
X168584819Y-64142856D02*
X168584819Y-63904761D01*
X168584819Y-63904761D02*
X168632438Y-63809523D01*
X168632438Y-63809523D02*
X168680057Y-63761904D01*
X168680057Y-63761904D02*
X168775295Y-63714285D01*
X168775295Y-63714285D02*
X168870533Y-63714285D01*
X168870533Y-63714285D02*
X169013390Y-63761904D01*
X169013390Y-63761904D02*
X169584819Y-64333332D01*
X169584819Y-64333332D02*
X169584819Y-63714285D01*
X164584819Y-64666666D02*
X164108628Y-64999999D01*
X164584819Y-65238094D02*
X163584819Y-65238094D01*
X163584819Y-65238094D02*
X163584819Y-64857142D01*
X163584819Y-64857142D02*
X163632438Y-64761904D01*
X163632438Y-64761904D02*
X163680057Y-64714285D01*
X163680057Y-64714285D02*
X163775295Y-64666666D01*
X163775295Y-64666666D02*
X163918152Y-64666666D01*
X163918152Y-64666666D02*
X164013390Y-64714285D01*
X164013390Y-64714285D02*
X164061009Y-64761904D01*
X164061009Y-64761904D02*
X164108628Y-64857142D01*
X164108628Y-64857142D02*
X164108628Y-65238094D01*
X164584819Y-63714285D02*
X164584819Y-64285713D01*
X164584819Y-63999999D02*
X163584819Y-63999999D01*
X163584819Y-63999999D02*
X163727676Y-64095237D01*
X163727676Y-64095237D02*
X163822914Y-64190475D01*
X163822914Y-64190475D02*
X163870533Y-64285713D01*
D11*
X150666666Y-80457419D02*
X150666666Y-81171704D01*
X150666666Y-81171704D02*
X150619047Y-81314561D01*
X150619047Y-81314561D02*
X150523809Y-81409800D01*
X150523809Y-81409800D02*
X150380952Y-81457419D01*
X150380952Y-81457419D02*
X150285714Y-81457419D01*
X151095238Y-80552657D02*
X151142857Y-80505038D01*
X151142857Y-80505038D02*
X151238095Y-80457419D01*
X151238095Y-80457419D02*
X151476190Y-80457419D01*
X151476190Y-80457419D02*
X151571428Y-80505038D01*
X151571428Y-80505038D02*
X151619047Y-80552657D01*
X151619047Y-80552657D02*
X151666666Y-80647895D01*
X151666666Y-80647895D02*
X151666666Y-80743133D01*
X151666666Y-80743133D02*
X151619047Y-80885990D01*
X151619047Y-80885990D02*
X151047619Y-81457419D01*
X151047619Y-81457419D02*
X151666666Y-81457419D01*
X132166666Y-80457419D02*
X132166666Y-81171704D01*
X132166666Y-81171704D02*
X132119047Y-81314561D01*
X132119047Y-81314561D02*
X132023809Y-81409800D01*
X132023809Y-81409800D02*
X131880952Y-81457419D01*
X131880952Y-81457419D02*
X131785714Y-81457419D01*
X133071428Y-80790752D02*
X133071428Y-81457419D01*
X132833333Y-80409800D02*
X132595238Y-81124085D01*
X132595238Y-81124085D02*
X133214285Y-81124085D01*
D10*
X136904761Y-42350057D02*
X136809523Y-42302438D01*
X136809523Y-42302438D02*
X136714285Y-42207200D01*
X136714285Y-42207200D02*
X136571428Y-42064342D01*
X136571428Y-42064342D02*
X136476190Y-42016723D01*
X136476190Y-42016723D02*
X136380952Y-42016723D01*
X136428571Y-42254819D02*
X136333333Y-42207200D01*
X136333333Y-42207200D02*
X136238095Y-42111961D01*
X136238095Y-42111961D02*
X136190476Y-41921485D01*
X136190476Y-41921485D02*
X136190476Y-41588152D01*
X136190476Y-41588152D02*
X136238095Y-41397676D01*
X136238095Y-41397676D02*
X136333333Y-41302438D01*
X136333333Y-41302438D02*
X136428571Y-41254819D01*
X136428571Y-41254819D02*
X136619047Y-41254819D01*
X136619047Y-41254819D02*
X136714285Y-41302438D01*
X136714285Y-41302438D02*
X136809523Y-41397676D01*
X136809523Y-41397676D02*
X136857142Y-41588152D01*
X136857142Y-41588152D02*
X136857142Y-41921485D01*
X136857142Y-41921485D02*
X136809523Y-42111961D01*
X136809523Y-42111961D02*
X136714285Y-42207200D01*
X136714285Y-42207200D02*
X136619047Y-42254819D01*
X136619047Y-42254819D02*
X136428571Y-42254819D01*
X137809523Y-42254819D02*
X137238095Y-42254819D01*
X137523809Y-42254819D02*
X137523809Y-41254819D01*
X137523809Y-41254819D02*
X137428571Y-41397676D01*
X137428571Y-41397676D02*
X137333333Y-41492914D01*
X137333333Y-41492914D02*
X137238095Y-41540533D01*
X136860733Y-50109580D02*
X136813114Y-50157200D01*
X136813114Y-50157200D02*
X136670257Y-50204819D01*
X136670257Y-50204819D02*
X136575019Y-50204819D01*
X136575019Y-50204819D02*
X136432162Y-50157200D01*
X136432162Y-50157200D02*
X136336924Y-50061961D01*
X136336924Y-50061961D02*
X136289305Y-49966723D01*
X136289305Y-49966723D02*
X136241686Y-49776247D01*
X136241686Y-49776247D02*
X136241686Y-49633390D01*
X136241686Y-49633390D02*
X136289305Y-49442914D01*
X136289305Y-49442914D02*
X136336924Y-49347676D01*
X136336924Y-49347676D02*
X136432162Y-49252438D01*
X136432162Y-49252438D02*
X136575019Y-49204819D01*
X136575019Y-49204819D02*
X136670257Y-49204819D01*
X136670257Y-49204819D02*
X136813114Y-49252438D01*
X136813114Y-49252438D02*
X136860733Y-49300057D01*
X137241686Y-49300057D02*
X137289305Y-49252438D01*
X137289305Y-49252438D02*
X137384543Y-49204819D01*
X137384543Y-49204819D02*
X137622638Y-49204819D01*
X137622638Y-49204819D02*
X137717876Y-49252438D01*
X137717876Y-49252438D02*
X137765495Y-49300057D01*
X137765495Y-49300057D02*
X137813114Y-49395295D01*
X137813114Y-49395295D02*
X137813114Y-49490533D01*
X137813114Y-49490533D02*
X137765495Y-49633390D01*
X137765495Y-49633390D02*
X137194067Y-50204819D01*
X137194067Y-50204819D02*
X137813114Y-50204819D01*
X132154819Y-56213333D02*
X132869104Y-56213333D01*
X132869104Y-56213333D02*
X133011961Y-56260952D01*
X133011961Y-56260952D02*
X133107200Y-56356190D01*
X133107200Y-56356190D02*
X133154819Y-56499047D01*
X133154819Y-56499047D02*
X133154819Y-56594285D01*
X133154819Y-55213333D02*
X133154819Y-55784761D01*
X133154819Y-55499047D02*
X132154819Y-55499047D01*
X132154819Y-55499047D02*
X132297676Y-55594285D01*
X132297676Y-55594285D02*
X132392914Y-55689523D01*
X132392914Y-55689523D02*
X132440533Y-55784761D01*
X144504819Y-65571904D02*
X145314342Y-65571904D01*
X145314342Y-65571904D02*
X145409580Y-65524285D01*
X145409580Y-65524285D02*
X145457200Y-65476666D01*
X145457200Y-65476666D02*
X145504819Y-65381428D01*
X145504819Y-65381428D02*
X145504819Y-65190952D01*
X145504819Y-65190952D02*
X145457200Y-65095714D01*
X145457200Y-65095714D02*
X145409580Y-65048095D01*
X145409580Y-65048095D02*
X145314342Y-65000476D01*
X145314342Y-65000476D02*
X144504819Y-65000476D01*
X145504819Y-64000476D02*
X145504819Y-64571904D01*
X145504819Y-64286190D02*
X144504819Y-64286190D01*
X144504819Y-64286190D02*
X144647676Y-64381428D01*
X144647676Y-64381428D02*
X144742914Y-64476666D01*
X144742914Y-64476666D02*
X144790533Y-64571904D01*
X159111905Y-41204819D02*
X159111905Y-40204819D01*
X159683333Y-41204819D02*
X159254762Y-40633390D01*
X159683333Y-40204819D02*
X159111905Y-40776247D01*
X160635714Y-41204819D02*
X160064286Y-41204819D01*
X160350000Y-41204819D02*
X160350000Y-40204819D01*
X160350000Y-40204819D02*
X160254762Y-40347676D01*
X160254762Y-40347676D02*
X160159524Y-40442914D01*
X160159524Y-40442914D02*
X160064286Y-40490533D01*
X141854433Y-61859580D02*
X141806814Y-61907200D01*
X141806814Y-61907200D02*
X141663957Y-61954819D01*
X141663957Y-61954819D02*
X141568719Y-61954819D01*
X141568719Y-61954819D02*
X141425862Y-61907200D01*
X141425862Y-61907200D02*
X141330624Y-61811961D01*
X141330624Y-61811961D02*
X141283005Y-61716723D01*
X141283005Y-61716723D02*
X141235386Y-61526247D01*
X141235386Y-61526247D02*
X141235386Y-61383390D01*
X141235386Y-61383390D02*
X141283005Y-61192914D01*
X141283005Y-61192914D02*
X141330624Y-61097676D01*
X141330624Y-61097676D02*
X141425862Y-61002438D01*
X141425862Y-61002438D02*
X141568719Y-60954819D01*
X141568719Y-60954819D02*
X141663957Y-60954819D01*
X141663957Y-60954819D02*
X141806814Y-61002438D01*
X141806814Y-61002438D02*
X141854433Y-61050057D01*
X142806814Y-61954819D02*
X142235386Y-61954819D01*
X142521100Y-61954819D02*
X142521100Y-60954819D01*
X142521100Y-60954819D02*
X142425862Y-61097676D01*
X142425862Y-61097676D02*
X142330624Y-61192914D01*
X142330624Y-61192914D02*
X142235386Y-61240533D01*
D12*
%TO.C,R3*%
X162000000Y-68540000D02*
X162000000Y-67770000D01*
X160630000Y-67770000D02*
X163370000Y-67770000D01*
X163370000Y-67770000D02*
X163370000Y-61230000D01*
X160630000Y-61230000D02*
X160630000Y-67770000D01*
X163370000Y-61230000D02*
X160630000Y-61230000D01*
X162000000Y-60460000D02*
X162000000Y-61230000D01*
%TO.C,R2*%
X171500000Y-68540000D02*
X171500000Y-67770000D01*
X170130000Y-67770000D02*
X172870000Y-67770000D01*
X172870000Y-67770000D02*
X172870000Y-61230000D01*
X170130000Y-61230000D02*
X170130000Y-67770000D01*
X172870000Y-61230000D02*
X170130000Y-61230000D01*
X171500000Y-60460000D02*
X171500000Y-61230000D01*
%TO.C,R1*%
X166500000Y-68540000D02*
X166500000Y-67770000D01*
X165130000Y-67770000D02*
X167870000Y-67770000D01*
X167870000Y-67770000D02*
X167870000Y-61230000D01*
X165130000Y-61230000D02*
X165130000Y-67770000D01*
X167870000Y-61230000D02*
X165130000Y-61230000D01*
X166500000Y-60460000D02*
X166500000Y-61230000D01*
%TO.C,C3*%
X134730199Y-59305000D02*
X135130199Y-59305000D01*
X134930199Y-59105000D02*
X134930199Y-59505000D01*
X137000000Y-58420000D02*
X137000000Y-62580000D01*
X137040000Y-58420000D02*
X137040000Y-62580000D01*
X137080000Y-58421000D02*
X137080000Y-62579000D01*
X137120000Y-58423000D02*
X137120000Y-62577000D01*
X137160000Y-58426000D02*
X137160000Y-62574000D01*
X137200000Y-58429000D02*
X137200000Y-59660000D01*
X137200000Y-61340000D02*
X137200000Y-62571000D01*
X137240000Y-58433000D02*
X137240000Y-59660000D01*
X137240000Y-61340000D02*
X137240000Y-62567000D01*
X137280000Y-58438000D02*
X137280000Y-59660000D01*
X137280000Y-61340000D02*
X137280000Y-62562000D01*
X137320000Y-58444000D02*
X137320000Y-59660000D01*
X137320000Y-61340000D02*
X137320000Y-62556000D01*
X137360000Y-58450000D02*
X137360000Y-59660000D01*
X137360000Y-61340000D02*
X137360000Y-62550000D01*
X137400000Y-58458000D02*
X137400000Y-59660000D01*
X137400000Y-61340000D02*
X137400000Y-62542000D01*
X137440000Y-58466000D02*
X137440000Y-59660000D01*
X137440000Y-61340000D02*
X137440000Y-62534000D01*
X137480000Y-58475000D02*
X137480000Y-59660000D01*
X137480000Y-61340000D02*
X137480000Y-62525000D01*
X137520000Y-58484000D02*
X137520000Y-59660000D01*
X137520000Y-61340000D02*
X137520000Y-62516000D01*
X137560000Y-58495000D02*
X137560000Y-59660000D01*
X137560000Y-61340000D02*
X137560000Y-62505000D01*
X137600000Y-58506000D02*
X137600000Y-59660000D01*
X137600000Y-61340000D02*
X137600000Y-62494000D01*
X137640000Y-58518000D02*
X137640000Y-59660000D01*
X137640000Y-61340000D02*
X137640000Y-62482000D01*
X137680000Y-58532000D02*
X137680000Y-59660000D01*
X137680000Y-61340000D02*
X137680000Y-62468000D01*
X137721000Y-58546000D02*
X137721000Y-59660000D01*
X137721000Y-61340000D02*
X137721000Y-62454000D01*
X137761000Y-58560000D02*
X137761000Y-59660000D01*
X137761000Y-61340000D02*
X137761000Y-62440000D01*
X137801000Y-58576000D02*
X137801000Y-59660000D01*
X137801000Y-61340000D02*
X137801000Y-62424000D01*
X137841000Y-58593000D02*
X137841000Y-59660000D01*
X137841000Y-61340000D02*
X137841000Y-62407000D01*
X137881000Y-58611000D02*
X137881000Y-59660000D01*
X137881000Y-61340000D02*
X137881000Y-62389000D01*
X137921000Y-58630000D02*
X137921000Y-59660000D01*
X137921000Y-61340000D02*
X137921000Y-62370000D01*
X137961000Y-58649000D02*
X137961000Y-59660000D01*
X137961000Y-61340000D02*
X137961000Y-62351000D01*
X138001000Y-58670000D02*
X138001000Y-59660000D01*
X138001000Y-61340000D02*
X138001000Y-62330000D01*
X138041000Y-58692000D02*
X138041000Y-59660000D01*
X138041000Y-61340000D02*
X138041000Y-62308000D01*
X138081000Y-58715000D02*
X138081000Y-59660000D01*
X138081000Y-61340000D02*
X138081000Y-62285000D01*
X138121000Y-58740000D02*
X138121000Y-59660000D01*
X138121000Y-61340000D02*
X138121000Y-62260000D01*
X138161000Y-58765000D02*
X138161000Y-59660000D01*
X138161000Y-61340000D02*
X138161000Y-62235000D01*
X138201000Y-58792000D02*
X138201000Y-59660000D01*
X138201000Y-61340000D02*
X138201000Y-62208000D01*
X138241000Y-58820000D02*
X138241000Y-59660000D01*
X138241000Y-61340000D02*
X138241000Y-62180000D01*
X138281000Y-58850000D02*
X138281000Y-59660000D01*
X138281000Y-61340000D02*
X138281000Y-62150000D01*
X138321000Y-58881000D02*
X138321000Y-59660000D01*
X138321000Y-61340000D02*
X138321000Y-62119000D01*
X138361000Y-58913000D02*
X138361000Y-59660000D01*
X138361000Y-61340000D02*
X138361000Y-62087000D01*
X138401000Y-58948000D02*
X138401000Y-59660000D01*
X138401000Y-61340000D02*
X138401000Y-62052000D01*
X138441000Y-58984000D02*
X138441000Y-59660000D01*
X138441000Y-61340000D02*
X138441000Y-62016000D01*
X138481000Y-59022000D02*
X138481000Y-59660000D01*
X138481000Y-61340000D02*
X138481000Y-61978000D01*
X138521000Y-59062000D02*
X138521000Y-59660000D01*
X138521000Y-61340000D02*
X138521000Y-61938000D01*
X138561000Y-59104000D02*
X138561000Y-59660000D01*
X138561000Y-61340000D02*
X138561000Y-61896000D01*
X138601000Y-59149000D02*
X138601000Y-59660000D01*
X138601000Y-61340000D02*
X138601000Y-61851000D01*
X138641000Y-59196000D02*
X138641000Y-59660000D01*
X138641000Y-61340000D02*
X138641000Y-61804000D01*
X138681000Y-59246000D02*
X138681000Y-59660000D01*
X138681000Y-61340000D02*
X138681000Y-61754000D01*
X138721000Y-59300000D02*
X138721000Y-59660000D01*
X138721000Y-61340000D02*
X138721000Y-61700000D01*
X138761000Y-59358000D02*
X138761000Y-59660000D01*
X138761000Y-61340000D02*
X138761000Y-61642000D01*
X138801000Y-59420000D02*
X138801000Y-59660000D01*
X138801000Y-61340000D02*
X138801000Y-61580000D01*
X138841000Y-59487000D02*
X138841000Y-61513000D01*
X138881000Y-59560000D02*
X138881000Y-61440000D01*
X138921000Y-59641000D02*
X138921000Y-61359000D01*
X138961000Y-59732000D02*
X138961000Y-61268000D01*
X139001000Y-59836000D02*
X139001000Y-61164000D01*
X139041000Y-59963000D02*
X139041000Y-61037000D01*
X139081000Y-60130000D02*
X139081000Y-60870000D01*
X139120000Y-60500000D02*
G75*
G02*
X134880000Y-60500000I-2120000J0D01*
G01*
X134880000Y-60500000D02*
G75*
G02*
X139120000Y-60500000I2120000J0D01*
G01*
%TO.C,Q1*%
X135200000Y-47210000D02*
X138800000Y-47210000D01*
X135161522Y-47198478D02*
G75*
G02*
X137000000Y-42759999I1838478J1838478D01*
G01*
X137000000Y-42760000D02*
G75*
G02*
X138838478Y-47198478I0J-2600000D01*
G01*
%TO.C,C2*%
X134757599Y-51805000D02*
X135157599Y-51805000D01*
X134957599Y-51605000D02*
X134957599Y-52005000D01*
X137027400Y-50920000D02*
X137027400Y-55080000D01*
X137067400Y-50920000D02*
X137067400Y-55080000D01*
X137107400Y-50921000D02*
X137107400Y-55079000D01*
X137147400Y-50923000D02*
X137147400Y-55077000D01*
X137187400Y-50926000D02*
X137187400Y-55074000D01*
X137227400Y-50929000D02*
X137227400Y-52160000D01*
X137227400Y-53840000D02*
X137227400Y-55071000D01*
X137267400Y-50933000D02*
X137267400Y-52160000D01*
X137267400Y-53840000D02*
X137267400Y-55067000D01*
X137307400Y-50938000D02*
X137307400Y-52160000D01*
X137307400Y-53840000D02*
X137307400Y-55062000D01*
X137347400Y-50944000D02*
X137347400Y-52160000D01*
X137347400Y-53840000D02*
X137347400Y-55056000D01*
X137387400Y-50950000D02*
X137387400Y-52160000D01*
X137387400Y-53840000D02*
X137387400Y-55050000D01*
X137427400Y-50958000D02*
X137427400Y-52160000D01*
X137427400Y-53840000D02*
X137427400Y-55042000D01*
X137467400Y-50966000D02*
X137467400Y-52160000D01*
X137467400Y-53840000D02*
X137467400Y-55034000D01*
X137507400Y-50975000D02*
X137507400Y-52160000D01*
X137507400Y-53840000D02*
X137507400Y-55025000D01*
X137547400Y-50984000D02*
X137547400Y-52160000D01*
X137547400Y-53840000D02*
X137547400Y-55016000D01*
X137587400Y-50995000D02*
X137587400Y-52160000D01*
X137587400Y-53840000D02*
X137587400Y-55005000D01*
X137627400Y-51006000D02*
X137627400Y-52160000D01*
X137627400Y-53840000D02*
X137627400Y-54994000D01*
X137667400Y-51018000D02*
X137667400Y-52160000D01*
X137667400Y-53840000D02*
X137667400Y-54982000D01*
X137707400Y-51032000D02*
X137707400Y-52160000D01*
X137707400Y-53840000D02*
X137707400Y-54968000D01*
X137748400Y-51046000D02*
X137748400Y-52160000D01*
X137748400Y-53840000D02*
X137748400Y-54954000D01*
X137788400Y-51060000D02*
X137788400Y-52160000D01*
X137788400Y-53840000D02*
X137788400Y-54940000D01*
X137828400Y-51076000D02*
X137828400Y-52160000D01*
X137828400Y-53840000D02*
X137828400Y-54924000D01*
X137868400Y-51093000D02*
X137868400Y-52160000D01*
X137868400Y-53840000D02*
X137868400Y-54907000D01*
X137908400Y-51111000D02*
X137908400Y-52160000D01*
X137908400Y-53840000D02*
X137908400Y-54889000D01*
X137948400Y-51130000D02*
X137948400Y-52160000D01*
X137948400Y-53840000D02*
X137948400Y-54870000D01*
X137988400Y-51149000D02*
X137988400Y-52160000D01*
X137988400Y-53840000D02*
X137988400Y-54851000D01*
X138028400Y-51170000D02*
X138028400Y-52160000D01*
X138028400Y-53840000D02*
X138028400Y-54830000D01*
X138068400Y-51192000D02*
X138068400Y-52160000D01*
X138068400Y-53840000D02*
X138068400Y-54808000D01*
X138108400Y-51215000D02*
X138108400Y-52160000D01*
X138108400Y-53840000D02*
X138108400Y-54785000D01*
X138148400Y-51240000D02*
X138148400Y-52160000D01*
X138148400Y-53840000D02*
X138148400Y-54760000D01*
X138188400Y-51265000D02*
X138188400Y-52160000D01*
X138188400Y-53840000D02*
X138188400Y-54735000D01*
X138228400Y-51292000D02*
X138228400Y-52160000D01*
X138228400Y-53840000D02*
X138228400Y-54708000D01*
X138268400Y-51320000D02*
X138268400Y-52160000D01*
X138268400Y-53840000D02*
X138268400Y-54680000D01*
X138308400Y-51350000D02*
X138308400Y-52160000D01*
X138308400Y-53840000D02*
X138308400Y-54650000D01*
X138348400Y-51381000D02*
X138348400Y-52160000D01*
X138348400Y-53840000D02*
X138348400Y-54619000D01*
X138388400Y-51413000D02*
X138388400Y-52160000D01*
X138388400Y-53840000D02*
X138388400Y-54587000D01*
X138428400Y-51448000D02*
X138428400Y-52160000D01*
X138428400Y-53840000D02*
X138428400Y-54552000D01*
X138468400Y-51484000D02*
X138468400Y-52160000D01*
X138468400Y-53840000D02*
X138468400Y-54516000D01*
X138508400Y-51522000D02*
X138508400Y-52160000D01*
X138508400Y-53840000D02*
X138508400Y-54478000D01*
X138548400Y-51562000D02*
X138548400Y-52160000D01*
X138548400Y-53840000D02*
X138548400Y-54438000D01*
X138588400Y-51604000D02*
X138588400Y-52160000D01*
X138588400Y-53840000D02*
X138588400Y-54396000D01*
X138628400Y-51649000D02*
X138628400Y-52160000D01*
X138628400Y-53840000D02*
X138628400Y-54351000D01*
X138668400Y-51696000D02*
X138668400Y-52160000D01*
X138668400Y-53840000D02*
X138668400Y-54304000D01*
X138708400Y-51746000D02*
X138708400Y-52160000D01*
X138708400Y-53840000D02*
X138708400Y-54254000D01*
X138748400Y-51800000D02*
X138748400Y-52160000D01*
X138748400Y-53840000D02*
X138748400Y-54200000D01*
X138788400Y-51858000D02*
X138788400Y-52160000D01*
X138788400Y-53840000D02*
X138788400Y-54142000D01*
X138828400Y-51920000D02*
X138828400Y-52160000D01*
X138828400Y-53840000D02*
X138828400Y-54080000D01*
X138868400Y-51987000D02*
X138868400Y-54013000D01*
X138908400Y-52060000D02*
X138908400Y-53940000D01*
X138948400Y-52141000D02*
X138948400Y-53859000D01*
X138988400Y-52232000D02*
X138988400Y-53768000D01*
X139028400Y-52336000D02*
X139028400Y-53664000D01*
X139068400Y-52463000D02*
X139068400Y-53537000D01*
X139108400Y-52630000D02*
X139108400Y-53370000D01*
X139147400Y-53000000D02*
G75*
G02*
X134907400Y-53000000I-2120000J0D01*
G01*
X134907400Y-53000000D02*
G75*
G02*
X139147400Y-53000000I2120000J0D01*
G01*
%TO.C,J1*%
X117750000Y-47750000D02*
X117750000Y-63950000D01*
X130750000Y-47750000D02*
X117750000Y-47750000D01*
X130750000Y-47750000D02*
X130750000Y-63950000D01*
X130750000Y-63950000D02*
X117750000Y-63950000D01*
%TO.C,U1*%
X146050000Y-62160000D02*
X146050000Y-63810000D01*
X146050000Y-65810000D02*
X146050000Y-67460000D01*
X146050000Y-67460000D02*
X156330000Y-67460000D01*
X156330000Y-62160000D02*
X146050000Y-62160000D01*
X156330000Y-67460000D02*
X156330000Y-62160000D01*
X146050000Y-63810000D02*
G75*
G02*
X146050000Y-65810000I0J-1000000D01*
G01*
%TO.C,K1*%
X144600000Y-53750000D02*
X144600000Y-55250000D01*
X144600000Y-55250000D02*
X146100000Y-55250000D01*
X144800000Y-41950000D02*
X144800000Y-55050000D01*
X144800000Y-55050000D02*
X174200000Y-55050000D01*
X149890000Y-45900000D02*
X149890000Y-50980000D01*
D11*
X149890000Y-49710000D02*
X152430000Y-48440000D01*
D12*
X149890000Y-50980000D02*
X151160000Y-50980000D01*
X149890000Y-52250000D02*
X151160000Y-52250000D01*
X151160000Y-44630000D02*
X149890000Y-44630000D01*
X151160000Y-45900000D02*
X151160000Y-44630000D01*
X151160000Y-50980000D02*
X152430000Y-50980000D01*
X151160000Y-52250000D02*
X151160000Y-50980000D01*
X152430000Y-45900000D02*
X149890000Y-45900000D01*
X152430000Y-50980000D02*
X152430000Y-45900000D01*
X174200000Y-41950000D02*
X144800000Y-41950000D01*
X174200000Y-55050000D02*
X174200000Y-41950000D01*
%TO.C,C1*%
X139483812Y-63665000D02*
X139933812Y-63665000D01*
X139708812Y-63440000D02*
X139708812Y-63890000D01*
X139901359Y-63940000D02*
G75*
G02*
X139901359Y-66060000I2119741J-1060000D01*
G01*
%TD*%
M02*
